# xmcd CD database file
#
# Track frame offsets:
#	150
#	23151
#	43408
#	66603
#	89126
#	110870
#	132269
#	160717
#	179971
#	201917
#	223956
#	244101
#	264427
#	282944
#	308714
#	331702
#
# Disc length: 4716 seconds
#
# Revision: 2
# Processed by: cddbd v1.5.2PL0 Copyright (c) Steve Scherf et al.
# Submitted via: CDex 1.70beta2
#
DISCID=05126a10
DTITLE=Varios - Lo Esencial de la Salsa
DYEAR=2009
DGENRE=Salsa
TTITLE0=Jerry Rivera - Amores como el nuestro
TTITLE1=N'Klabe feat. Victor Manuelle - Evitare
TTITLE2=Willie Gonzalez - Pequeñas Cosas
TTITLE3=Tito Gomez - Pagina de Amor
TTITLE4=Orquesta Matecaña - Gracias Amor
TTITLE5=Orquesta Guayacan - Me amas y me dejas
TTITLE6=Polo Montañez - Un monton de estrellas
TTITLE7=Titanes - Sobredosis
TTITLE8=Orquesta Canela - Tu intrusa y amante
TTITLE9=Maelo Ruiz - Te va a doler
TTITLE10=Grupo Caneo - De punta a punta
TTITLE11=Nelson Diaz y su Constelacion - Asi fue
TTITLE12=Luiz Enrique - No te quites la ropa
TTITLE13=Pedro Conga - La va a pagar
TTITLE14=Naty y su Orquesta - Piensa en mi
TTITLE15=Ramon Chaverra - Vivo pensando
EXTD=YEAR: 2009
EXTT0=
EXTT1=
EXTT2=
EXTT3=
EXTT4=
EXTT5=
EXTT6=
EXTT7=
EXTT8=
EXTT9=
EXTT10=
EXTT11=
EXTT12=
EXTT13=
EXTT14=
EXTT15=
PLAYORDER=
